<svg width="226" height="32" viewBox="0 0 226 32" fill="none" xmlns="http://www.w3.org/2000/svg">
<path d="M48.7012 10.9134C48.5875 9.90483 48.1188 9.12358 47.2949 8.5696C46.4711 8.00852 45.4341 7.72798 44.1841 7.72798C43.2892 7.72798 42.5151 7.87003 41.8617 8.15412C41.2083 8.43111 40.7005 8.81463 40.3382 9.30469C39.9831 9.78764 39.8056 10.3381 39.8056 10.956C39.8056 11.4744 39.9263 11.9219 40.1678 12.2983C40.4164 12.6747 40.7395 12.9908 41.1373 13.2464C41.5421 13.495 41.9753 13.7045 42.437 13.875C42.8986 14.0384 43.3425 14.1733 43.7686 14.2798L45.8993 14.8338C46.5953 15.0043 47.3091 15.2351 48.0407 15.5263C48.7722 15.8175 49.4505 16.201 50.0755 16.6768C50.7005 17.1527 51.2047 17.7422 51.5882 18.4453C51.9789 19.1484 52.1742 19.9901 52.1742 20.9702C52.1742 22.206 51.8546 23.3033 51.2154 24.2621C50.5833 25.2209 49.6635 25.9773 48.4561 26.5312C47.2559 27.0852 45.8034 27.3622 44.0989 27.3622C42.4654 27.3622 41.052 27.103 39.8588 26.5845C38.6657 26.0661 37.7317 25.331 37.057 24.3793C36.3823 23.4205 36.0094 22.2841 35.9384 20.9702H39.2409C39.3049 21.7585 39.5605 22.4155 40.008 22.9411C40.4625 23.4595 41.0414 23.8466 41.7445 24.1023C42.4547 24.3509 43.2324 24.4751 44.0776 24.4751C45.008 24.4751 45.8354 24.3295 46.5598 24.0384C47.2914 23.7401 47.8667 23.3281 48.2857 22.8026C48.7047 22.2699 48.9142 21.6484 48.9142 20.9382C48.9142 20.2919 48.7296 19.7628 48.3603 19.3509C47.998 18.9389 47.5044 18.598 46.8794 18.3281C46.2615 18.0582 45.562 17.8203 44.7807 17.6143L42.2026 16.9112C40.4554 16.4354 39.0705 15.7358 38.0478 14.8125C37.0321 13.8892 36.5243 12.6676 36.5243 11.1477C36.5243 9.89062 36.8652 8.79332 37.5471 7.85582C38.2289 6.91832 39.1522 6.19034 40.3169 5.67188C41.4817 5.14631 42.7956 4.88352 44.2587 4.88352C45.736 4.88352 47.0392 5.14276 48.1685 5.66122C49.3049 6.17969 50.1998 6.89347 50.8532 7.80256C51.5066 8.70454 51.8475 9.74148 51.8759 10.9134H48.7012ZM63.4908 10.6364V13.1932H54.5526V10.6364L63.4908 10.6364ZM56.9496 6.71591H60.1349V22.1953C60.1349 22.8132 60.2273 23.2784 60.4119 23.5909C60.5966 23.8963 60.8345 24.1058 61.1257 24.2195C61.424 24.326 61.7472 24.3793 62.0952 24.3793C62.3509 24.3793 62.5746 24.3615 62.7663 24.326C62.9581 24.2905 63.1072 24.2621 63.2138 24.2408L63.7891 26.8722C63.6044 26.9432 63.3416 27.0142 63.0007 27.0852C62.6598 27.1634 62.2337 27.206 61.7223 27.2131C60.8842 27.2273 60.103 27.0781 59.3786 26.7656C58.6541 26.4531 58.0682 25.9702 57.6207 25.3168C57.1733 24.6634 56.9496 23.843 56.9496 22.8558V6.71591ZM71.7765 27.3622C70.7395 27.3622 69.802 27.1705 68.964 26.7869C68.1259 26.3963 67.4618 25.8317 66.9718 25.093C66.4888 24.3544 66.2473 23.4489 66.2473 22.3764C66.2473 21.4531 66.4249 20.6932 66.78 20.0966C67.1351 19.5 67.6145 19.0277 68.2182 18.6797C68.8219 18.3317 69.4966 18.0689 70.2424 17.8913C70.9881 17.7138 71.748 17.5788 72.5222 17.4865C73.5023 17.3729 74.2978 17.2805 74.9086 17.2095C75.5194 17.1314 75.9632 17.0071 76.2402 16.8366C76.5172 16.6662 76.6557 16.3892 76.6557 16.0057V15.9311C76.6557 15.0007 76.3929 14.2798 75.8674 13.7685C75.3489 13.2571 74.5748 13.0014 73.5449 13.0014C72.4725 13.0014 71.6273 13.2393 71.0094 13.7152C70.3986 14.1839 69.976 14.706 69.7417 15.2812L66.748 14.5994C67.1032 13.6051 67.6216 12.8026 68.3034 12.1918C68.9924 11.5739 69.7843 11.1264 70.6792 10.8494C71.574 10.5653 72.5151 10.4233 73.5023 10.4233C74.1557 10.4233 74.8482 10.5014 75.5797 10.6577C76.3184 10.8068 77.0073 11.0838 77.6465 11.4886C78.2928 11.8935 78.8219 12.4723 79.2338 13.2251C79.6458 13.9709 79.8517 14.9403 79.8517 16.1335V27H76.7409V24.7628H76.6131C76.4071 25.1747 76.0982 25.5795 75.6863 25.9773C75.2743 26.375 74.7452 26.7053 74.0989 26.968C73.4526 27.2308 72.6784 27.3622 71.7765 27.3622ZM72.4689 24.8054C73.3496 24.8054 74.1025 24.6314 74.7275 24.2834C75.3596 23.9354 75.839 23.4808 76.1657 22.9197C76.4995 22.3516 76.6664 21.7443 76.6664 21.098V18.9886C76.5527 19.1023 76.3326 19.2088 76.0059 19.3082C75.6863 19.4006 75.3205 19.4822 74.9086 19.5533C74.4966 19.6172 74.0953 19.6776 73.7047 19.7344C73.3141 19.7841 72.9874 19.8267 72.7246 19.8622C72.1067 19.9403 71.5421 20.0717 71.0307 20.2564C70.5265 20.4411 70.1216 20.7074 69.8162 21.0554C69.5179 21.3963 69.3688 21.8509 69.3688 22.419C69.3688 23.2074 69.66 23.804 70.2424 24.2088C70.8248 24.6065 71.5669 24.8054 72.4689 24.8054ZM84.0945 27V10.6364H87.1733V13.2358H87.3438C87.642 12.3551 88.1676 11.6626 88.9205 11.1584C89.6804 10.647 90.5398 10.3913 91.4986 10.3913C91.6974 10.3913 91.9318 10.3984 92.2017 10.4126C92.4787 10.4268 92.6953 10.4446 92.8516 10.4659V13.5128C92.7237 13.4773 92.4964 13.4382 92.1697 13.3956C91.843 13.3459 91.5163 13.321 91.1896 13.321C90.4368 13.321 89.7656 13.4808 89.1761 13.8004C88.5938 14.1129 88.1321 14.5497 87.7912 15.1108C87.4503 15.6648 87.2798 16.2969 87.2798 17.0071V27H84.0945ZM101.148 27.3196C99.8269 27.3196 98.6479 26.9822 97.611 26.3075C96.5811 25.6257 95.7715 24.6562 95.182 23.3991C94.5996 22.1349 94.3084 20.6186 94.3084 18.8501C94.3084 17.0817 94.6032 15.5689 95.1926 14.3118C95.7892 13.0547 96.606 12.0923 97.6429 11.4247C98.6799 10.7571 99.8553 10.4233 101.169 10.4233C102.185 10.4233 103.002 10.5937 103.619 10.9347C104.244 11.2685 104.727 11.6591 105.068 12.1065C105.416 12.554 105.686 12.9482 105.878 13.2891H106.07V5.18182L109.255 5.18182V27H106.144V24.4538H105.878C105.686 24.8018 105.409 25.1996 105.047 25.647C104.692 26.0945 104.202 26.4851 103.577 26.8189C102.952 27.1527 102.142 27.3196 101.148 27.3196ZM101.851 24.603C102.767 24.603 103.541 24.3615 104.173 23.8786C104.813 23.3885 105.296 22.7102 105.622 21.8437C105.956 20.9773 106.123 19.9687 106.123 18.8182C106.123 17.6818 105.96 16.6875 105.633 15.8352C105.306 14.983 104.827 14.3189 104.195 13.843C103.563 13.3672 102.781 13.1293 101.851 13.1293C100.892 13.1293 100.093 13.3778 99.454 13.875C98.8148 14.3722 98.3319 15.0504 98.0051 15.9098C97.6855 16.7692 97.5257 17.7386 97.5257 18.8182C97.5257 19.9119 97.6891 20.8956 98.0158 21.7692C98.3425 22.6428 98.8255 23.3352 99.4647 23.8466C100.111 24.3509 100.906 24.603 101.851 24.603ZM124.167 20.2138V10.6364H127.363V27H124.231V24.1662H124.061C123.684 25.0398 123.081 25.7678 122.25 26.3501C121.426 26.9254 120.4 27.2131 119.171 27.2131C118.12 27.2131 117.189 26.9822 116.38 26.5206C115.577 26.0518 114.945 25.3594 114.483 24.4432C114.029 23.527 113.801 22.3942 113.801 21.0447V10.6364H116.987V20.6612C116.987 21.7763 117.296 22.6641 117.914 23.3246C118.532 23.9851 119.334 24.3153 120.321 24.3153C120.918 24.3153 121.511 24.1662 122.1 23.8679C122.697 23.5696 123.191 23.1186 123.581 22.5149C123.979 21.9112 124.174 21.1442 124.167 20.2138ZM143.905 14.6314L141.018 15.1428C140.898 14.7734 140.706 14.4219 140.443 14.0881C140.187 13.7543 139.839 13.4808 139.399 13.2678C138.959 13.0547 138.408 12.9482 137.748 12.9482C136.846 12.9482 136.093 13.1506 135.489 13.5554C134.885 13.9531 134.584 14.468 134.584 15.1001C134.584 15.647 134.786 16.0874 135.191 16.4212C135.596 16.755 136.249 17.0284 137.151 17.2415L139.751 17.8381C141.256 18.1861 142.378 18.7223 143.117 19.4467C143.856 20.1712 144.225 21.1122 144.225 22.2699C144.225 23.25 143.941 24.1236 143.373 24.8906C142.812 25.6506 142.027 26.2472 141.018 26.6804C140.017 27.1136 138.856 27.3303 137.535 27.3303C135.702 27.3303 134.207 26.9396 133.05 26.1584C131.892 25.37 131.182 24.2514 130.919 22.8026L133.998 22.3338C134.189 23.1364 134.584 23.7436 135.18 24.1555C135.777 24.5604 136.555 24.7628 137.513 24.7628C138.557 24.7628 139.392 24.5462 140.017 24.1129C140.642 23.6726 140.954 23.1364 140.954 22.5043C140.954 21.9929 140.763 21.5632 140.379 21.2152C140.003 20.8672 139.424 20.6044 138.643 20.4268L135.873 19.8196C134.346 19.4716 133.216 18.9176 132.485 18.1577C131.76 17.3977 131.398 16.4354 131.398 15.2706C131.398 14.3047 131.668 13.4595 132.208 12.7351C132.748 12.0107 133.493 11.446 134.445 11.0412C135.397 10.6293 136.487 10.4233 137.716 10.4233C139.484 10.4233 140.876 10.8068 141.892 11.5739C142.907 12.3338 143.579 13.353 143.905 14.6314ZM155.366 10.6364V13.1932H146.428V10.6364H155.366ZM148.825 6.71591L152.01 6.71591V22.1953C152.01 22.8132 152.102 23.2784 152.287 23.5909C152.472 23.8963 152.71 24.1058 153.001 24.2195C153.299 24.326 153.622 24.3793 153.97 24.3793C154.226 24.3793 154.45 24.3615 154.641 24.326C154.833 24.2905 154.982 24.2621 155.089 24.2408L155.664 26.8722C155.479 26.9432 155.217 27.0142 154.876 27.0852C154.535 27.1634 154.109 27.206 153.597 27.2131C152.759 27.2273 151.978 27.0781 151.254 26.7656C150.529 26.4531 149.943 25.9702 149.496 25.3168C149.048 24.6634 148.825 23.843 148.825 22.8558V6.71591ZM177.267 12.277H173.943C173.815 11.5668 173.577 10.9418 173.229 10.402C172.881 9.86222 172.455 9.40412 171.95 9.0277C171.446 8.65128 170.882 8.36719 170.257 8.17543C169.639 7.98366 168.982 7.88778 168.286 7.88778C167.029 7.88778 165.903 8.20384 164.909 8.83594C163.921 9.46804 163.14 10.3949 162.565 11.6165C161.997 12.8381 161.713 14.3295 161.713 16.0909C161.713 17.8665 161.997 19.3651 162.565 20.5866C163.14 21.8082 163.925 22.7315 164.919 23.3565C165.914 23.9815 167.032 24.294 168.275 24.294C168.964 24.294 169.617 24.2017 170.235 24.017C170.86 23.8253 171.425 23.5447 171.929 23.1754C172.433 22.8061 172.86 22.3551 173.208 21.8224C173.563 21.2827 173.808 20.6648 173.943 19.9687L177.267 19.9794C177.089 21.0518 176.744 22.0391 176.233 22.9411C175.729 23.8359 175.079 24.6101 174.284 25.2635C173.495 25.9098 172.593 26.4105 171.578 26.7656C170.562 27.1207 169.454 27.2983 168.254 27.2983C166.365 27.2983 164.681 26.8509 163.204 25.956C161.727 25.054 160.562 23.7649 159.71 22.0888C158.865 20.4126 158.442 18.4134 158.442 16.0909C158.442 13.7614 158.868 11.7621 159.72 10.093C160.573 8.4169 161.737 7.13139 163.215 6.23651C164.692 5.33452 166.372 4.88352 168.254 4.88352C169.411 4.88352 170.491 5.05043 171.492 5.38423C172.501 5.71094 173.406 6.19389 174.209 6.8331C175.012 7.4652 175.676 8.23935 176.201 9.15554C176.727 10.0646 177.082 11.1051 177.267 12.277ZM185.712 27.3622C184.675 27.3622 183.738 27.1705 182.9 26.7869C182.061 26.3963 181.397 25.8317 180.907 25.093C180.424 24.3544 180.183 23.4489 180.183 22.3764C180.183 21.4531 180.36 20.6932 180.716 20.0966C181.071 19.5 181.55 19.0277 182.154 18.6797C182.757 18.3317 183.432 18.0689 184.178 17.8913C184.924 17.7138 185.684 17.5788 186.458 17.4865C187.438 17.3729 188.233 17.2805 188.844 17.2095C189.455 17.1314 189.899 17.0071 190.176 16.8366C190.453 16.6662 190.591 16.3892 190.591 16.0057V15.9311C190.591 15.0007 190.328 14.2798 189.803 13.7685C189.284 13.2571 188.51 13.0014 187.48 13.0014C186.408 13.0014 185.563 13.2393 184.945 13.7152C184.334 14.1839 183.912 14.706 183.677 15.2812L180.684 14.5994C181.039 13.6051 181.557 12.8026 182.239 12.1918C182.928 11.5739 183.72 11.1264 184.615 10.8494C185.51 10.5653 186.451 10.4233 187.438 10.4233C188.091 10.4233 188.784 10.5014 189.515 10.6577C190.254 10.8068 190.943 11.0838 191.582 11.4886C192.228 11.8935 192.757 12.4723 193.169 13.2251C193.581 13.9709 193.787 14.9403 193.787 16.1335V27H190.676V24.7628H190.549C190.343 25.1747 190.034 25.5795 189.622 25.9773C189.21 26.375 188.681 26.7053 188.034 26.968C187.388 27.2308 186.614 27.3622 185.712 27.3622ZM186.404 24.8054C187.285 24.8054 188.038 24.6314 188.663 24.2834C189.295 23.9354 189.775 23.4808 190.101 22.9197C190.435 22.3516 190.602 21.7443 190.602 21.098V18.9886C190.488 19.1023 190.268 19.2088 189.941 19.3082C189.622 19.4006 189.256 19.4822 188.844 19.5533C188.432 19.6172 188.031 19.6776 187.64 19.7344C187.25 19.7841 186.923 19.8267 186.66 19.8622C186.042 19.9403 185.478 20.0717 184.966 20.2564C184.462 20.4411 184.057 20.7074 183.752 21.0554C183.453 21.3963 183.304 21.8509 183.304 22.419C183.304 23.2074 183.596 23.804 184.178 24.2088C184.76 24.6065 185.502 24.8054 186.404 24.8054ZM198.03 27V10.6364H201.109V13.2358H201.279C201.578 12.3551 202.103 11.6626 202.856 11.1584C203.616 10.647 204.475 10.3913 205.434 10.3913C205.633 10.3913 205.867 10.3984 206.137 10.4126C206.414 10.4268 206.631 10.4446 206.787 10.4659V13.5128C206.659 13.4773 206.432 13.4382 206.105 13.3956C205.779 13.3459 205.452 13.321 205.125 13.321C204.372 13.321 203.701 13.4808 203.112 13.8004C202.529 14.1129 202.068 14.5497 201.727 15.1108C201.386 15.6648 201.215 16.2969 201.215 17.0071V27H198.03ZM215.083 27.3196C213.762 27.3196 212.583 26.9822 211.547 26.3075C210.517 25.6257 209.707 24.6562 209.118 23.3991C208.535 22.1349 208.244 20.6186 208.244 18.8501C208.244 17.0817 208.539 15.5689 209.128 14.3118C209.725 13.0547 210.542 12.0923 211.578 11.4247C212.615 10.7571 213.791 10.4233 215.105 10.4233C216.12 10.4233 216.937 10.5937 217.555 10.9347C218.18 11.2685 218.663 11.6591 219.004 12.1065C219.352 12.554 219.622 12.9482 219.814 13.2891H220.005V5.18182H223.191V27H220.08V24.4538H219.814C219.622 24.8018 219.345 25.1996 218.983 25.647C218.627 26.0945 218.137 26.4851 217.512 26.8189C216.887 27.1527 216.078 27.3196 215.083 27.3196ZM215.787 24.603C216.703 24.603 217.477 24.3615 218.109 23.8786C218.748 23.3885 219.231 22.7102 219.558 21.8437C219.892 20.9773 220.059 19.9687 220.059 18.8182C220.059 17.6818 219.895 16.6875 219.569 15.8352C219.242 14.983 218.762 14.3189 218.13 13.843C217.498 13.3672 216.717 13.1293 215.787 13.1293C214.828 13.1293 214.029 13.3778 213.39 13.875C212.75 14.3722 212.267 15.0504 211.941 15.9098C211.621 16.7692 211.461 17.7386 211.461 18.8182C211.461 19.9119 211.625 20.8956 211.951 21.7692C212.278 22.6428 212.761 23.3352 213.4 23.8466C214.047 24.3509 214.842 24.603 215.787 24.603Z" fill="#6622CC"/>
<mask id="mask0_289_345" style="mask-type:alpha" maskUnits="userSpaceOnUse" x="0" y="0" width="32" height="32">
<rect width="32" height="32" fill="#D9D9D9"/>
</mask>
<g mask="url(#mask0_289_345)">
<path d="M8.06692 28.067C7.82247 28.267 7.56136 28.2781 7.28359 28.1003C7.00581 27.9225 6.92247 27.6781 7.03359 27.367L9.53359 19.2003L3.03358 14.5336C2.76692 14.3558 2.68358 14.1114 2.78358 13.8003C2.88358 13.4892 3.08914 13.3336 3.40025 13.3336H11.4669L14.0336 4.80029C14.078 4.62252 14.1614 4.50029 14.2836 4.43363C14.4058 4.36696 14.5336 4.33363 14.6669 4.33363C14.8003 4.33363 14.928 4.36696 15.0503 4.43363C15.1725 4.50029 15.2558 4.62252 15.3003 4.80029L17.8669 13.3336L25.9336 13.3336C26.2447 13.3336 26.4503 13.4892 26.5503 13.8003C26.6503 14.1114 26.5669 14.3558 26.3003 14.5336L19.8003 19.2003L22.3003 27.367C22.4114 27.6781 22.328 27.9225 22.0503 28.1003C21.7725 28.2781 21.5114 28.267 21.2669 28.067L14.6669 23.067L8.06692 28.067ZM11.4669 22.2003L14.6669 19.7336L17.8669 22.2003L16.6669 18.1336L19.6669 16.0003H15.9336L14.6669 11.867L13.4003 16.0003H9.66692L12.6669 18.1336L11.4669 22.2003ZM26.8003 28.067L24.8336 26.567L22.8669 20.267L27.0003 17.3336H29.5003C29.8114 17.3336 30.0225 17.4892 30.1336 17.8003C30.2447 18.1114 30.1669 18.3558 29.9003 18.5336L26.0003 21.3336L27.8669 27.3336C27.978 27.6447 27.8891 27.8947 27.6003 28.0836C27.3114 28.2725 27.0447 28.267 26.8003 28.067ZM19.8669 10.667L18.8669 7.26696L19.6003 4.80029C19.6447 4.62252 19.728 4.49474 19.8503 4.41696C19.9725 4.33918 20.1003 4.30029 20.2336 4.30029C20.3669 4.30029 20.4947 4.34474 20.6169 4.43363C20.7391 4.52252 20.8225 4.64474 20.8669 4.80029L22.6669 10.667H19.8669Z" fill="#6622CC"/>
</g>
</svg>
